<mxfile host="app.diagrams.net" modified="2023-12-17T13:57:24.545Z" agent="Mozilla/5.0 (Macintosh; Intel Mac OS X 10_15_7) AppleWebKit/605.1.15 (KHTML, like Gecko) Version/15.6.1 Safari/605.1.15" etag="g1AcmDSoCR2yxixFzREo" version="22.1.11" type="github">
  <diagram name="Página-1" id="bU0bgOvAKqYtEfahXp6e">
    <mxGraphModel dx="2084" dy="788" grid="1" gridSize="10" guides="1" tooltips="1" connect="1" arrows="1" fold="1" page="1" pageScale="1" pageWidth="827" pageHeight="1169" math="0" shadow="0">
      <root>
        <mxCell id="0" />
        <mxCell id="1" parent="0" />
        <mxCell id="KcScVtAwubOT3udj_Sm9-58" style="edgeStyle=orthogonalEdgeStyle;rounded=0;orthogonalLoop=1;jettySize=auto;html=1;" parent="1" source="KcScVtAwubOT3udj_Sm9-5" edge="1">
          <mxGeometry relative="1" as="geometry">
            <mxPoint x="365" y="560" as="targetPoint" />
          </mxGeometry>
        </mxCell>
        <mxCell id="KcScVtAwubOT3udj_Sm9-5" value="&lt;font style=&quot;font-size: 25px;&quot;&gt;Gestores de bases de Datos&lt;/font&gt;" style="shape=parallelogram;perimeter=parallelogramPerimeter;whiteSpace=wrap;html=1;fixedSize=1;fillColor=#fad7ac;strokeColor=#b46504;" parent="1" vertex="1">
          <mxGeometry x="180" y="350" width="370" height="110" as="geometry" />
        </mxCell>
        <mxCell id="KcScVtAwubOT3udj_Sm9-10" value="" style="edgeStyle=orthogonalEdgeStyle;rounded=0;orthogonalLoop=1;jettySize=auto;html=1;" parent="1" source="KcScVtAwubOT3udj_Sm9-7" target="KcScVtAwubOT3udj_Sm9-9" edge="1">
          <mxGeometry relative="1" as="geometry" />
        </mxCell>
        <mxCell id="KcScVtAwubOT3udj_Sm9-12" value="" style="edgeStyle=orthogonalEdgeStyle;rounded=0;orthogonalLoop=1;jettySize=auto;html=1;" parent="1" source="KcScVtAwubOT3udj_Sm9-7" target="KcScVtAwubOT3udj_Sm9-11" edge="1">
          <mxGeometry relative="1" as="geometry" />
        </mxCell>
        <mxCell id="KcScVtAwubOT3udj_Sm9-16" value="" style="edgeStyle=orthogonalEdgeStyle;rounded=0;orthogonalLoop=1;jettySize=auto;html=1;" parent="1" source="KcScVtAwubOT3udj_Sm9-7" edge="1">
          <mxGeometry relative="1" as="geometry">
            <mxPoint x="360" y="690" as="targetPoint" />
          </mxGeometry>
        </mxCell>
        <mxCell id="KcScVtAwubOT3udj_Sm9-7" value="MARIADB" style="whiteSpace=wrap;html=1;" parent="1" vertex="1">
          <mxGeometry x="300" y="565" width="120" height="60" as="geometry" />
        </mxCell>
        <mxCell id="KcScVtAwubOT3udj_Sm9-18" value="" style="edgeStyle=orthogonalEdgeStyle;rounded=0;orthogonalLoop=1;jettySize=auto;html=1;" parent="1" source="KcScVtAwubOT3udj_Sm9-9" target="KcScVtAwubOT3udj_Sm9-37" edge="1">
          <mxGeometry relative="1" as="geometry">
            <mxPoint x="550" y="710" as="targetPoint" />
          </mxGeometry>
        </mxCell>
        <mxCell id="KcScVtAwubOT3udj_Sm9-9" value="SQLITE" style="whiteSpace=wrap;html=1;" parent="1" vertex="1">
          <mxGeometry x="500" y="565" width="120" height="60" as="geometry" />
        </mxCell>
        <mxCell id="KcScVtAwubOT3udj_Sm9-11" value="MYSQL" style="whiteSpace=wrap;html=1;" parent="1" vertex="1">
          <mxGeometry x="100" y="565" width="120" height="60" as="geometry" />
        </mxCell>
        <mxCell id="KcScVtAwubOT3udj_Sm9-31" value="&lt;font style=&quot;font-size: 16px;&quot;&gt;&amp;nbsp;ORACLE&lt;/font&gt;" style="labelPosition=center;verticalLabelPosition=middle;align=center;html=1;shape=mxgraph.basic.shaded_button;dx=10;fillColor=#b1ddf0;strokeColor=#10739e;whiteSpace=wrap;" parent="1" vertex="1">
          <mxGeometry x="300" y="565" width="120" height="60" as="geometry" />
        </mxCell>
        <mxCell id="KcScVtAwubOT3udj_Sm9-32" value="&lt;font style=&quot;font-size: 16px;&quot;&gt;&amp;nbsp;&lt;font style=&quot;font-size: 16px;&quot;&gt;POSTGRE&lt;/font&gt; &lt;font style=&quot;font-size: 16px;&quot;&gt;SQL&lt;/font&gt;&lt;/font&gt;" style="labelPosition=center;verticalLabelPosition=middle;align=center;html=1;shape=mxgraph.basic.shaded_button;dx=10;fillColor=#d0cee2;strokeColor=#56517e;whiteSpace=wrap;" parent="1" vertex="1">
          <mxGeometry x="500" y="565" width="120" height="60" as="geometry" />
        </mxCell>
        <mxCell id="KcScVtAwubOT3udj_Sm9-57" value="" style="edgeStyle=orthogonalEdgeStyle;rounded=0;orthogonalLoop=1;jettySize=auto;html=1;" parent="1" source="KcScVtAwubOT3udj_Sm9-34" target="KcScVtAwubOT3udj_Sm9-35" edge="1">
          <mxGeometry relative="1" as="geometry" />
        </mxCell>
        <mxCell id="KcScVtAwubOT3udj_Sm9-34" value="&lt;font style=&quot;font-size: 16px;&quot;&gt;&amp;nbsp;MYSQL&lt;/font&gt;" style="labelPosition=center;verticalLabelPosition=middle;align=center;html=1;shape=mxgraph.basic.shaded_button;dx=10;fillColor=#fad9d5;strokeColor=#ae4132;whiteSpace=wrap;" parent="1" vertex="1">
          <mxGeometry x="100" y="565" width="120" height="60" as="geometry" />
        </mxCell>
        <mxCell id="KcScVtAwubOT3udj_Sm9-35" value="&lt;div style=&quot;&quot;&gt;&lt;font style=&quot;font-size: 21px;&quot;&gt;&amp;nbsp; &amp;nbsp;&amp;nbsp;&lt;/font&gt;&lt;font style=&quot;font-size: 13px;&quot;&gt;ESTE SISTEMA SE BASA EN HACER VINCULOS O RELACIONES ENTRE LOS &amp;nbsp; DATOS &lt;/font&gt;&lt;font style=&quot;font-size: 21px;&quot;&gt;&amp;nbsp; &amp;nbsp; &amp;nbsp;&lt;/font&gt;&lt;/div&gt;" style="rounded=1;whiteSpace=wrap;html=1;absoluteArcSize=1;arcSize=14;strokeWidth=2;align=center;fillColor=#fad9d5;strokeColor=#ae4132;" parent="1" vertex="1">
          <mxGeometry x="-200" y="690" width="290" height="100" as="geometry" />
        </mxCell>
        <mxCell id="KcScVtAwubOT3udj_Sm9-36" value="EEs la primera compañía de software que desarrolla software para empresas 100 activado en internet a través de toda su linea de productos de base de datos." style="rounded=1;whiteSpace=wrap;html=1;absoluteArcSize=1;arcSize=14;strokeWidth=2;fillColor=#b1ddf0;strokeColor=#10739e;" parent="1" vertex="1">
          <mxGeometry x="250" y="690" width="250" height="110" as="geometry" />
        </mxCell>
        <mxCell id="KcScVtAwubOT3udj_Sm9-37" value="ES UN SGBD RELACIONAL ESTA ORIENTADO A OBJETOS Y ES LIBRE &amp;nbsp;&amp;nbsp;" style="rounded=1;whiteSpace=wrap;html=1;absoluteArcSize=1;arcSize=14;strokeWidth=2;fillColor=#d0cee2;strokeColor=#56517e;" parent="1" vertex="1">
          <mxGeometry x="640" y="690" width="220" height="100" as="geometry" />
        </mxCell>
        <mxCell id="BMDmxw6lj4DjaYSlCYrs-36" value="" style="edgeStyle=orthogonalEdgeStyle;rounded=0;orthogonalLoop=1;jettySize=auto;html=1;" parent="1" source="BMDmxw6lj4DjaYSlCYrs-10" target="KcScVtAwubOT3udj_Sm9-35" edge="1">
          <mxGeometry relative="1" as="geometry" />
        </mxCell>
        <mxCell id="BMDmxw6lj4DjaYSlCYrs-10" value="&lt;div style=&quot;&quot;&gt;&lt;ul&gt;&lt;li style=&quot;text-align: left;&quot;&gt;&lt;span style=&quot;font-size: 11px;&quot;&gt;VENTAJAS:&lt;/span&gt;&lt;br&gt;&lt;/li&gt;&lt;li style=&quot;text-align: left;&quot;&gt;&lt;span style=&quot;font-size: 11px;&quot;&gt;FACILIDAD DE USO Y GRAN RENDIMIENTO FACILIDAD PARA INSTALAR Y CONFIGURAR&lt;/span&gt;&lt;br&gt;&lt;/li&gt;&lt;li style=&quot;text-align: left;&quot;&gt;&lt;span style=&quot;font-size: 11px;&quot;&gt;SOPORTE MULTIPLATAFORMA&lt;/span&gt;&lt;br&gt;&lt;/li&gt;&lt;/ul&gt;&lt;/div&gt;" style="shape=hexagon;perimeter=hexagonPerimeter2;whiteSpace=wrap;html=1;fixedSize=1;align=center;size=20;fillColor=#fad9d5;strokeColor=#ae4132;" parent="1" vertex="1">
          <mxGeometry x="-240" y="880" width="170" height="160" as="geometry" />
        </mxCell>
        <mxCell id="BMDmxw6lj4DjaYSlCYrs-37" value="" style="edgeStyle=orthogonalEdgeStyle;rounded=0;orthogonalLoop=1;jettySize=auto;html=1;" parent="1" source="BMDmxw6lj4DjaYSlCYrs-11" target="KcScVtAwubOT3udj_Sm9-35" edge="1">
          <mxGeometry relative="1" as="geometry" />
        </mxCell>
        <mxCell id="BMDmxw6lj4DjaYSlCYrs-11" value="&lt;ul style=&quot;&quot;&gt;&lt;li style=&quot;text-align: left;&quot;&gt;&lt;span style=&quot;&quot;&gt;DESVE NTAJAS:&amp;nbsp;&lt;/span&gt;&lt;/li&gt;&lt;li style=&quot;text-align: left;&quot;&gt;&lt;span style=&quot;&quot;&gt;NO TRABAJAN DE MANERA EFICIENTE CON BASE DE DATOS QUE SUPERA UN DETERMINADO TAMAÑO&lt;/span&gt;&lt;br&gt;&lt;/li&gt;&lt;/ul&gt;" style="shape=hexagon;perimeter=hexagonPerimeter2;whiteSpace=wrap;html=1;fixedSize=1;fillColor=#fad9d5;strokeColor=#ae4132;" parent="1" vertex="1">
          <mxGeometry x="-40" y="880" width="170" height="160" as="geometry" />
        </mxCell>
        <mxCell id="BMDmxw6lj4DjaYSlCYrs-44" value="" style="edgeStyle=orthogonalEdgeStyle;rounded=0;orthogonalLoop=1;jettySize=auto;html=1;" parent="1" source="BMDmxw6lj4DjaYSlCYrs-16" target="KcScVtAwubOT3udj_Sm9-36" edge="1">
          <mxGeometry relative="1" as="geometry" />
        </mxCell>
        <mxCell id="ZsDx62zLDZAr6M_-Bc92-1" style="edgeStyle=orthogonalEdgeStyle;rounded=0;orthogonalLoop=1;jettySize=auto;html=1;exitX=1;exitY=0.5;exitDx=0;exitDy=0;" parent="1" source="BMDmxw6lj4DjaYSlCYrs-16" edge="1">
          <mxGeometry relative="1" as="geometry">
            <mxPoint x="380" y="960.4705882352941" as="targetPoint" />
          </mxGeometry>
        </mxCell>
        <mxCell id="BMDmxw6lj4DjaYSlCYrs-16" value="&lt;ul&gt;&lt;li&gt;&lt;span style=&quot;&quot;&gt;&amp;nbsp;VENTAJAS:&lt;/span&gt;&lt;/li&gt;&lt;li&gt;&lt;span style=&quot;&quot;&gt;PUEDE EJECUTARSE EN TOAS LAS PLATAFORMAS&lt;/span&gt;&lt;br&gt;&lt;/li&gt;&lt;li&gt;&lt;span style=&quot;&quot;&gt;&amp;nbsp;SOPORTA TODAS LAS FUNCIONES QUE SE ESPERA DE UN SERVIDOR&amp;nbsp;&lt;/span&gt;&lt;/li&gt;&lt;li&gt;&lt;span style=&quot;&quot;&gt;ES LA BASE DE DATOS CON MAS ORIENTACION A INTERNET.&amp;nbsp;&lt;/span&gt;&lt;/li&gt;&lt;/ul&gt;" style="shape=hexagon;perimeter=hexagonPerimeter2;whiteSpace=wrap;html=1;fixedSize=1;align=left;fillColor=#b1ddf0;strokeColor=#10739e;" parent="1" vertex="1">
          <mxGeometry x="160" y="880" width="220" height="160" as="geometry" />
        </mxCell>
        <mxCell id="BMDmxw6lj4DjaYSlCYrs-39" value="" style="edgeStyle=orthogonalEdgeStyle;rounded=0;orthogonalLoop=1;jettySize=auto;html=1;" parent="1" source="BMDmxw6lj4DjaYSlCYrs-17" target="KcScVtAwubOT3udj_Sm9-37" edge="1">
          <mxGeometry relative="1" as="geometry" />
        </mxCell>
        <mxCell id="BMDmxw6lj4DjaYSlCYrs-17" value="&lt;ul style=&quot;&quot;&gt;&lt;li style=&quot;text-align: left;&quot;&gt;&amp;nbsp;VENTAJAS:&lt;/li&gt;&lt;li style=&quot;text-align: left;&quot;&gt;FLEXIBILIDAD EN CUANTO A &amp;nbsp;LENGUAJES DE PROGRAMACION&amp;nbsp;&lt;/li&gt;&lt;li style=&quot;text-align: left;&quot;&gt;&amp;nbsp;MULTIPLATAFORMA&lt;/li&gt;&lt;li style=&quot;text-align: left;&quot;&gt;&amp;nbsp;ROBUSTEZ EFICIENCIA Y ESTABILIDAD&amp;nbsp;&lt;/li&gt;&lt;/ul&gt;" style="shape=hexagon;perimeter=hexagonPerimeter2;whiteSpace=wrap;html=1;fixedSize=1;fillColor=#d0cee2;strokeColor=#56517e;" parent="1" vertex="1">
          <mxGeometry x="600" y="880" width="180" height="160" as="geometry" />
        </mxCell>
        <mxCell id="BMDmxw6lj4DjaYSlCYrs-38" value="" style="edgeStyle=orthogonalEdgeStyle;rounded=0;orthogonalLoop=1;jettySize=auto;html=1;" parent="1" source="BMDmxw6lj4DjaYSlCYrs-18" target="KcScVtAwubOT3udj_Sm9-37" edge="1">
          <mxGeometry relative="1" as="geometry" />
        </mxCell>
        <mxCell id="BMDmxw6lj4DjaYSlCYrs-18" value="&lt;ul style=&quot;&quot;&gt;&lt;li style=&quot;text-align: left;&quot;&gt;&amp;nbsp;DESVENTAJAS:&lt;/li&gt;&lt;li style=&quot;text-align: left;&quot;&gt;&amp;nbsp;ES LA LENTITUD PARA LA ADMINISTRACION DE BASE DE DATOS PEQUEÑAS YA QUE ESTA OPTIMIZADO PARA GESTIONAR GRANDES BASES DE DATOS.&lt;/li&gt;&lt;/ul&gt;" style="shape=hexagon;perimeter=hexagonPerimeter2;whiteSpace=wrap;html=1;fixedSize=1;fillColor=#d0cee2;strokeColor=#56517e;" parent="1" vertex="1">
          <mxGeometry x="800" y="880" width="200" height="160" as="geometry" />
        </mxCell>
        <mxCell id="BMDmxw6lj4DjaYSlCYrs-45" value="" style="edgeStyle=orthogonalEdgeStyle;rounded=0;orthogonalLoop=1;jettySize=auto;html=1;" parent="1" source="BMDmxw6lj4DjaYSlCYrs-19" target="KcScVtAwubOT3udj_Sm9-36" edge="1">
          <mxGeometry relative="1" as="geometry" />
        </mxCell>
        <mxCell id="BMDmxw6lj4DjaYSlCYrs-19" value="&lt;ul style=&quot;&quot;&gt;&lt;li style=&quot;text-align: left;&quot;&gt;DESVENTAJAS:&lt;/li&gt;&lt;li style=&quot;text-align: left;&quot;&gt;EL MAYOR INCONVENIENTE DE ORACLE ES SU PRECIO&lt;/li&gt;&lt;li style=&quot;text-align: left;&quot;&gt;S US VERSIONES Y REMODELACIONES HAN PROVOCADO FALLAS.&lt;/li&gt;&lt;/ul&gt;" style="shape=hexagon;perimeter=hexagonPerimeter2;whiteSpace=wrap;html=1;fixedSize=1;fillColor=#b1ddf0;strokeColor=#10739e;" parent="1" vertex="1">
          <mxGeometry x="400" y="880" width="180" height="160" as="geometry" />
        </mxCell>
      </root>
    </mxGraphModel>
  </diagram>
</mxfile>
